<svg width="147" height="33" viewBox="0 0 147 33" fill="none" xmlns="http://www.w3.org/2000/svg">
<g clip-path="url(#clip0_0_3)">
<path fill-rule="evenodd" clip-rule="evenodd" d="M33.393 7.883H24.873L31.193 21.725L9.922 31.855H33.393V7.883Z" fill="#C30A2D"/>
<path fill-rule="evenodd" clip-rule="evenodd" d="M24.874 7.883L21.274 0L0 10.13L9.92 31.854V7.883H24.874Z" fill="#FFD200"/>
<path fill-rule="evenodd" clip-rule="evenodd" d="M24.874 7.883H9.92V31.854H9.922L31.194 21.725L24.874 7.883Z" fill="#FF6900"/>
<path fill-rule="evenodd" clip-rule="evenodd" d="M46.282 32.172C45.25 32.172 44.282 32.035 43.378 31.76C42.472 31.484 41.748 31.144 41.203 30.736V25.483C41.63 25.87 42.214 26.221 42.953 26.537C43.693 26.852 44.54 27.01 45.494 27.01C46.681 27.01 47.562 26.75 48.136 26.231C48.71 25.711 48.998 25.147 48.998 24.536C48.998 24.027 48.856 23.559 48.574 23.131C48.292 22.704 47.771 22.297 47.012 21.91L45.056 20.84C43.889 20.21 42.949 19.45 42.239 18.565C41.528 17.679 41.173 16.565 41.173 15.221C41.173 13.266 41.941 11.641 43.48 10.349C45.017 9.056 47.09 8.409 49.698 8.409C50.691 8.409 51.548 8.491 52.267 8.654C52.987 8.817 53.542 9.02 53.931 9.264V14.487C53.561 14.223 53.071 13.983 52.457 13.77C51.8327 13.5544 51.1764 13.4462 50.516 13.45C49.562 13.45 48.803 13.632 48.238 13.999C47.674 14.365 47.391 14.864 47.391 15.496C47.391 15.923 47.523 16.289 47.786 16.596C48.048 16.9 48.482 17.206 49.086 17.511L50.954 18.519C52.315 19.252 53.333 20.128 54.004 21.146C54.676 22.164 55.012 23.345 55.012 24.689C55.012 26.745 54.282 28.506 52.822 29.973C51.362 31.439 49.182 32.172 46.282 32.172ZM66.41 32.172C63.783 32.172 61.725 31.418 60.236 29.912C58.746 28.405 58.002 26.349 58.002 23.742V14.915H63.812V24.2C63.812 25.137 64.026 25.89 64.454 26.46C64.882 27.03 65.534 27.315 66.411 27.315C67.325 27.315 68.001 27.031 68.44 26.46C68.878 25.89 69.097 25.137 69.097 24.2V14.915H74.877V23.742C74.877 26.349 74.133 28.405 72.644 29.912C71.154 31.418 69.076 32.172 66.41 32.172ZM94.118 14.915L85.826 32.05H85.212L76.922 14.915H82.614L85.534 22.368L88.424 14.915H94.118ZM96.57 31.683H102.233V14.915H96.569L96.57 31.683ZM112.714 22.673V31.683H106.816V14.915H112.393V17.725C112.879 16.829 113.628 16.055 114.641 15.404C115.653 14.753 116.801 14.426 118.086 14.426C119.876 14.426 121.316 15.006 122.407 16.168C123.497 17.328 124.042 18.916 124.042 20.933V31.683H118.145V22.49C118.145 21.492 117.92 20.708 117.473 20.138C117.025 19.568 116.392 19.283 115.575 19.283C114.739 19.283 114.052 19.588 113.517 20.199C112.981 20.809 112.714 21.634 112.714 22.673ZM128.538 31.683H134.202V14.915H128.538V31.683ZM138.777 26.826V7.845H144.445V25.635C144.445 26.083 144.562 26.409 144.795 26.612C145.029 26.816 145.292 26.918 145.584 26.918C145.837 26.918 146.042 26.892 146.198 26.842C146.354 26.791 146.48 26.734 146.577 26.674V31.472C146.324 31.655 145.925 31.819 145.38 31.961C144.836 32.1035 144.276 32.1754 143.714 32.175C141.864 32.175 140.578 31.635 139.858 30.555C139.137 29.475 138.777 28.232 138.777 26.826ZM99.387 12.6C101.324 12.6 102.498 11.595 102.498 9.746C102.498 7.898 101.324 6.893 99.387 6.893C97.482 6.893 96.275 7.898 96.275 9.746C96.275 11.594 97.482 12.6 99.387 12.6ZM131.366 12.61C133.303 12.61 134.478 11.605 134.478 9.757C134.478 7.909 133.303 6.904 131.366 6.904C129.461 6.904 128.255 7.909 128.255 9.757C128.255 11.605 129.461 12.61 131.366 12.61Z" fill="#000105"/>
</g>
<defs>
<clipPath id="clip0_0_3">
<rect width="147" height="33" fill="white"/>
</clipPath>
</defs>
</svg>
